PathFileType	4	(X/Y/Z)	Demo_0-100.trc
DataRate	CameraRate	NumFrames	NumMarkers	Units	OrigDataRate	OrigDataStartFrame	OrigNumFrames
60	60	5	21	m	60	0	100
Frame#	Time	RHip			RKnee			RAnkle			RBigToe			RSmallToe			RHeel			LHip			LKnee			LAnkle			LBigToe			LSmallToe			LHeel			Neck			Head			Nose			RShoulder			RElbow			RWrist			LShoulder			LElbow			LWrist		
		X1	Y1	Z1	X2	Y2	Z2	X3	Y3	Z3	X4	Y4	Z4	X5	Y5	Z5	X6	Y6	Z6	X7	Y7	Z7	X8	Y8	Z8	X9	Y9	Z9	X10	Y10	Z10	X11	Y11	Z11	X12	Y12	Z12	X13	Y13	Z13	X14	Y14	Z14	X15	Y15	Z15	X16	Y16	Z16	X17	Y17	Z17	X18	Y18	Z18	X19	Y19	Z19	X20	Y20	Z20	X21	Y21	Z21
1	0.016666666666666666	-0.06497214796810744	0.9015045550714221	-1.400588692618544	-0.03962636621727309	0.49309736508346963	-1.4485228257141771	0.04379014014240173	0.14387549822984247	-1.5950846771753318	-0.01690848270028726	0.06441006348542187	-1.4466122856697556	-0.023624113249186514	0.07647845076617456	-1.5050009460595855	0.06004531358209045	0.10438957736344648	-1.635819154305315	0.10414811565622753	0.9087621520330432	-1.458981654539821	0.03038491221362145	0.5361790123469126	-1.263490285090426	0.013819812608778223	0.181155755431403	-1.1375505145455749	-0.022302677625561824	0.09534707105232766	-1.0123924717196526	0.0025963104327098477	0.11352984352003757	-0.9899617326897933	0.023237931913577585	0.10282448118526054	-1.2269060955109108	-0.028751902614113027	1.4640637475385379	-1.3967538932054273	-0.0564393909632402	1.7024241363089387	-1.2517129181656792	-0.053114849001372276	1.5572683498402282	-1.197034641076441	-0.16750016780382987	1.392934836873916	-1.4131922619239161	-0.27296943586942385	1.1454816661314946	-1.4797856039000887	-0.3630508137854855	0.9227894097003225	-1.3696832448117424	0.14490455027913582	1.4142444604339657	-1.4453750555890648	0.2770249097377667	1.1648706333068448	-1.4725946558326335	0.3546307511327377	0.9377623867698924	-1.458088991313801
2	0.03333333333333333	-0.07400682936454447	0.9044249595446079	-1.3887505523537604	-0.03967167449854013	0.49306105441834885	-1.4481465415844852	0.03988629702625415	0.14349351643381275	-1.5931576221287307	-0.01693718747270536	0.06664057660020724	-1.447736575144414	-0.02234837531943463	0.07352380390368028	-1.496217380798817	0.05996569485170102	0.10409540139384073	-1.635538298389605	0.10008796347597876	0.904672603325304	-1.4434718166954243	0.033907959429300555	0.5268516767628307	-1.243658116486358	0.012763592072402415	0.15613065024381997	-1.1777669243519728	-0.00852575690037857	0.09766392901481136	-1.0160273159926332	0.013788204490539325	0.09066837480121778	-1.0281508175864158	0.019601383983223804	0.09717298030130757	-1.2254048566494866	-0.024657074173704427	1.464362815279325	-1.3878530017855382	-0.04431738829262489	1.7016913778057043	-1.2522449024257616	-0.038715092948178195	1.5594882255389044	-1.1849417421469113	-0.15896617746343025	1.3932559320012956	-1.4063254769319493	-0.2734393427687782	1.1499028148323787	-1.48234418121962	-0.3665969269241916	0.9409114413894222	-1.3674022847316432	0.15323234674039055	1.40454901414094	-1.4344764663555705	0.2805567270983056	1.1620780279498388	-1.4627085411562402	0.3544988542219321	0.9349072743155048	-1.4475312225497714
3	0.05	-0.0799400350878413	0.9088363315135072	-1.390558036124202	-0.03723419641981626	0.495576501410647	-1.4425663246315599	0.042418699756150174	0.1500265582226026	-1.594927259275387	-0.015749966866723142	0.06411191580102336	-1.451436025465263	-0.02098326956028773	0.07067668741162311	-1.5005609823471766	0.060178703555420716	0.10736688959206507	-1.637659009593991	0.09894617970669178	0.9056906633149082	-1.4319326461537192	0.030624905559852082	0.5257404480520174	-1.233423581175537	0.008050808337537721	0.17052098653932224	-1.1350391972773954	-0.019549516859120313	0.08742619997640169	-1.0054060218382272	-0.008820896852569784	0.0718991762362571	-1.0367161815619732	0.01861049271126473	0.1125116461561141	-1.1798733688670964	-0.01895508000699457	1.4624638855636751	-1.370409027846835	-0.028882428556993904	1.7039621016490347	-1.2520209437994767	-0.008359896355645855	1.5529161750373655	-1.2074851514876386	-0.16528247906785978	1.392750810960902	-1.4499293516229266	-0.27004612462096916	1.1530890629841963	-1.4677334871719527	-0.3655859906294031	0.9481164989999866	-1.3535425413680706	0.15718618633341155	1.404963251408117	-1.4260665970129454	0.28501738065255683	1.1579705936205236	-1.4389364397478692	0.3708205189840357	0.923806593115729	-1.4105458075324737
4	0.06666666666666667	-0.08342129985132576	0.9118448511189908	-1.379050154135988	-0.0378442482906746	0.4986109123625859	-1.435218986450016	0.04184198397833531	0.15062110725933386	-1.5951903296219656	-0.015932254565296875	0.06416123546532042	-1.4513721360611154	-0.022575997393011665	0.07319928707062526	-1.5045274244125022	0.05756460266382854	0.1169596453952762	-1.6363652236785142	0.09290312931304551	0.9098437283719358	-1.4193092192330004	0.06105929151589946	0.5096012715038661	-1.1892666366458093	0.007374751446314837	0.15505837307135886	-1.1808690531215507	-0.04378020262460316	0.07761079699508171	-1.0210196765995916	-0.017146053463474226	0.07584131736620424	-1.0399612109003558	0.014046580777959849	0.10523749431792895	-1.228245174413067	-0.0125495206321109	1.4638662725554938	-1.3652176336160404	-0.021262050211840404	1.7026487477750942	-1.2570495986090882	-0.008350811010892032	1.5529532822363696	-1.2071862921954262	-0.15751250700651756	1.3948904556685857	-1.448604791135599	-0.2996877407171277	1.142808894488997	-1.5238541534688408	-0.3679427566897119	0.9616792640643117	-1.3388440241773825	0.16072755816947026	1.3998772896653568	-1.4161220791506837	0.2900349664546638	1.152002530871588	-1.4161336571458534	0.3679392534818304	0.9209406904952349	-1.3980322674165044
5	0.08333333333333333	-0.08212388656510705	0.9107085919754115	-1.3705528594190393	-0.04150582145275053	0.4929167907686021	-1.4391550118268572	0.03682233210122573	0.1492766386661715	-1.599000224391451	-0.021482193170506116	0.06783629176552174	-1.4423567058485365	-0.026747037678660823	0.08037740611028277	-1.5017657758090888	0.05366234746160968	0.12022297381258862	-1.6408220352917797	0.09147625567616331	0.9100669057985624	-1.4139290585175404	0.06268370933424908	0.5103767599988093	-1.1823134125607417	0.002954177725043311	0.15675146224736847	-1.1821054577322765	-0.03848802073577698	0.07052276032300843	-1.0141140197085372	-0.014272675762046797	0.07347835346579577	-1.043291374875193	0.011831836553890987	0.1187747937275169	-1.1711837047310336	-0.002737062525806119	1.4639923785316706	-1.3551012693021256	-0.00973142501437641	1.7031729058977734	-1.2426213455119701	-0.00577734988964777	1.5544042132880518	-1.1946748133344045	-0.1494230313136896	1.401060212682429	-1.4369109688599486	-0.2757043208606998	1.1686799507679235	-1.4503924347162607	-0.3748016617540598	0.9763450427437763	-1.3213283410243597	0.16436263131396914	1.4013433494683019	-1.4106527125065669	0.2960220406909555	1.139386074018336	-1.4116183716990802	0.3715060490598979	0.912714124455644	-1.3851698160030528
